<svg xmlns="http://www.w3.org/2000/svg" viewBox="0 0 200 200"><defs><style>.aaeaf237-e04c-47e7-8a85-e675deb2b3d6{fill:#eb4c8d;}.a42dc3a8-388b-48c6-970a-8aaa04d5a4f3{fill:#820039;}.f31cc018-88eb-45ea-8eb8-a6c3c8476682{fill:#fff;}.c00fcf9c-67e6-49af-a806-ecaad4856c21{fill:#9c004c;}.c17a1732-c479-410b-afb1-b4daadb08469{fill:none;}</style></defs><title>Element 7</title><g id="51eebf45-802d-4b47-9267-fc0e30b71e4c" data-name="Ebene 2"><g id="326ffa2a-17a8-4cde-b743-8187855627d8" data-name="done"><g id="18ae899d-9c05-4284-9750-9c4081224dfa" data-name="C"><path class="aaeaf237-e04c-47e7-8a85-e675deb2b3d6" d="M200,0V42.45l-13.34,7.73L151,70.83A59.23,59.23,0,1,0,48.53,130.22L13.7,150.4h0L0,158.35V0Z"/><path class="aaeaf237-e04c-47e7-8a85-e675deb2b3d6" d="M151.1,129.35A59.21,59.21,0,1,1,151,70.83L125.38,85.69l-25,14.48,25,14.4Z"/><path class="a42dc3a8-388b-48c6-970a-8aaa04d5a4f3" d="M200,157.5V200H0V158.35l13.7-7.94,34.83-20.19a59.24,59.24,0,0,0,102.57-.87l35.56,20.47Z"/><path class="f31cc018-88eb-45ea-8eb8-a6c3c8476682" d="M151.1,129.35A59.21,59.21,0,1,1,151,70.83L125.38,85.69a29.6,29.6,0,1,0,0,28.88Z"/><path class="a42dc3a8-388b-48c6-970a-8aaa04d5a4f3" d="M125.42,114.57a29.6,29.6,0,0,1-51.26.8l26.24-15.2Z"/><path class="aaeaf237-e04c-47e7-8a85-e675deb2b3d6" d="M125.38,85.69l-25,14.48-26.24,15.2a29.6,29.6,0,1,1,51.22-29.68Z"/><path class="c00fcf9c-67e6-49af-a806-ecaad4856c21" d="M200,42.45V157.5l-13.34-7.68L151.1,129.35l-25.68-14.78-25-14.4,25-14.48L151,70.83l35.64-20.65Z"/><path class="c17a1732-c479-410b-afb1-b4daadb08469" d="M48.53,130.22l25.63-14.85,26.24-15.2"/></g></g></g></svg>