<svg xmlns="http://www.w3.org/2000/svg" viewBox="0 0 200 200"><defs><style>.\35 ba65d5f-3e36-4722-aa21-625e7e63df7b{fill:#659ad2;}.\30 93972e3-ccc2-46b3-903e-f9006ee9df3a{fill:#eb4c8d;}.c2f76e99-0dde-461f-8104-ec290cb88124{fill:#014482;}.b1777c41-2a01-43b9-90c6-00ff898332e4{fill:#fff;}.\38 ec3e2cc-2e78-4b87-bc48-1344e949f86b{fill:#00599c;}.db9c3dcb-4c1f-41bf-9601-f1ce991819a4{fill:none;}</style></defs><title>Element 8</title><g id="f8bed9b2-eebf-4a86-ae95-73752ad942c2" data-name="Ebene 2"><g id="8d00e654-707b-46ed-bee0-4f7f5f853c8b" data-name="done"><g id="dc545742-5b48-4ee1-a8bc-fd5d6f28220a" data-name="C++"><path class="5ba65d5f-3e36-4722-aa21-625e7e63df7b" d="M200,0V42.45l-13.34,7.73L151,70.83A59.23,59.23,0,1,0,48.53,130.22L13.7,150.4h0L0,158.35V0Z"/><path class="093972e3-ccc2-46b3-903e-f9006ee9df3a" d="M151.1,129.35A59.21,59.21,0,1,1,151,70.83L125.38,85.69l-25,14.48,25,14.4Z"/><path class="c2f76e99-0dde-461f-8104-ec290cb88124" d="M200,157.5V200H0V158.35l13.7-7.94,34.83-20.19a59.24,59.24,0,0,0,102.57-.87l35.56,20.47Z"/><path class="b1777c41-2a01-43b9-90c6-00ff898332e4" d="M151.1,129.35A59.21,59.21,0,1,1,151,70.83L125.38,85.69a29.6,29.6,0,1,0,0,28.88Z"/><path class="c2f76e99-0dde-461f-8104-ec290cb88124" d="M125.42,114.57a29.6,29.6,0,0,1-51.26.8l26.24-15.2Z"/><path class="5ba65d5f-3e36-4722-aa21-625e7e63df7b" d="M125.38,85.69l-25,14.48-26.24,15.2a29.6,29.6,0,1,1,51.22-29.68Z"/><path class="8ec3e2cc-2e78-4b87-bc48-1344e949f86b" d="M200,42.45V157.5l-13.34-7.68L151.1,129.35l-25.68-14.78-25-14.4,25-14.48L151,70.83l35.64-20.65Z"/><polygon class="b1777c41-2a01-43b9-90c6-00ff898332e4" points="157.92 96.75 157.92 103.33 151.31 103.33 151.31 109.94 144.73 109.94 144.73 103.33 138.13 103.33 138.13 96.75 144.73 96.75 144.73 90.15 151.31 90.15 151.31 96.75 157.92 96.75"/><polygon class="b1777c41-2a01-43b9-90c6-00ff898332e4" points="182.66 96.75 182.66 103.33 176.05 103.33 176.05 109.94 169.47 109.94 169.47 103.33 162.86 103.33 162.86 96.75 169.47 96.75 169.47 90.15 176.05 90.15 176.05 96.75 182.66 96.75"/><path class="db9c3dcb-4c1f-41bf-9601-f1ce991819a4" d="M48.53,130.22l25.63-14.85,26.24-15.2"/></g></g></g></svg>