<svg xmlns="http://www.w3.org/2000/svg" viewBox="0 0 200 200"><defs><style>.\36 1fedc45-b8a5-413a-ab9c-08bec4411746{fill:#0277bd;}.\37 0552c32-d1d3-499d-a284-17eadb8a7ae8{fill:none;stroke:#000;stroke-miterlimit:10;}.\31 e291c11-ac5a-4a4b-8ecb-f7035928d3be{fill:#039be5;}.\38 97f7d53-2d22-495f-823e-4bd440a69df5{fill:#fff;}.\34 6db536c-9b08-4261-a60a-75a3f02c8dbf{fill:#eee;}</style></defs><title>Element 3</title><g id="ddc798b1-875a-4888-9a00-7393a5026064" data-name="Ebene 2"><g id="cc0e3226-c927-45fc-83f8-8cf59234e940" data-name="done"><rect class="61fedc45-b8a5-413a-ab9c-08bec4411746" width="200" height="200"/><g id="ba9ab628-add9-4754-8e20-638d0d24f4ab" data-name="CSS"><path class="61fedc45-b8a5-413a-ab9c-08bec4411746" d="M11.78,0l16,180.2L100,200l72.24-19.8L188.22,0ZM158.54,167.94,100,184.71,41.46,167.94,28.51,15.29h143Z"/><polygon class="61fedc45-b8a5-413a-ab9c-08bec4411746" points="100 42.74 50.51 42.74 52.29 63.75 100 63.75 100 84.77 74.4 84.77 76.18 105.78 100 105.78 100 136.47 78.26 130.24 77.01 115.53 56.69 115.53 57.43 124.27 59.25 145.73 80.08 151.69 100 157.4 100 184.71 41.46 167.94 28.51 15.29 100 15.29 100 42.74"/><polygon class="70552c32-d1d3-499d-a284-17eadb8a7ae8" points="100 84.77 100 105.78 76.18 105.78 74.4 84.77 100 84.77"/><polygon class="70552c32-d1d3-499d-a284-17eadb8a7ae8" points="100 136.47 100 157.4 80.08 151.69 59.25 145.73 57.43 124.27 56.69 115.53 77.01 115.53 78.26 130.24 100 136.47"/><polygon class="1e291c11-ac5a-4a4b-8ecb-f7035928d3be" points="120.82 130.5 100 136.47 100 105.78 122.92 105.78 120.82 130.5"/><polygon class="1e291c11-ac5a-4a4b-8ecb-f7035928d3be" points="124.7 84.77 100 84.77 100 63.75 126.49 63.75 124.7 84.77"/><polygon class="1e291c11-ac5a-4a4b-8ecb-f7035928d3be" points="171.49 15.29 158.54 167.94 100 184.71 100 157.4 119 151.96 140.37 145.84 142.19 124.38 143.76 105.78 145.55 84.77 147.33 63.75 149.11 42.74 100 42.74 100 15.29 171.49 15.29"/><polygon class="897f7d53-2d22-495f-823e-4bd440a69df5" points="149.11 42.74 147.33 63.75 145.55 84.77 143.76 105.78 142.19 124.38 140.37 145.84 119 151.96 100 157.4 100 136.47 120.82 130.5 122.92 105.78 100 105.78 100 84.77 124.7 84.77 126.49 63.75 100 63.75 100 42.74 149.11 42.74"/><polygon class="46db536c-9b08-4261-a60a-75a3f02c8dbf" points="100 42.74 100 63.75 52.29 63.75 50.51 42.74 100 42.74"/><polygon class="46db536c-9b08-4261-a60a-75a3f02c8dbf" points="74.4 84.77 100 84.77 100 105.78 76.18 105.78 74.4 84.77"/><polygon class="46db536c-9b08-4261-a60a-75a3f02c8dbf" points="78.26 130.24 100 136.47 100 157.4 80.08 151.69 59.25 145.73 57.43 124.27 56.69 115.53 77.01 115.53 78.26 130.24"/><line class="70552c32-d1d3-499d-a284-17eadb8a7ae8" x1="52.29" y1="63.75" x2="51.89" y2="63.75"/></g></g></g></svg>