<svg xmlns="http://www.w3.org/2000/svg" viewBox="0 0 200 200"><defs><style>.b762dc73-9783-4c7e-a11c-df3fbbf51fcd{fill:#e44d26;}.\37 b3fadfe-36f8-457f-9033-33aa479fff1d{fill:#f16529;}.\34 e11135d-9e5b-4df6-acfa-68cdc4943fcf{fill:#fff;}.bf781c8f-aee3-4e94-812c-aa1fc085f305{fill:#ebebeb;}</style></defs><title>Element 2</title><g id="64bfe03d-6836-4043-89f9-8531488ecfe2" data-name="Ebene 2"><g id="940e8461-c169-4e0f-8235-b89ae4f9e2a9" data-name="done"><rect class="b762dc73-9783-4c7e-a11c-df3fbbf51fcd" width="200" height="200"/><g id="1e017ff2-5360-4816-be7a-3a688c457f67" data-name="HTML"><path class="b762dc73-9783-4c7e-a11c-df3fbbf51fcd" d="M11.78,0l16,180.2L100,200l72.24-19.8L188.22,0ZM158.54,167.94,100,184.71,41.46,167.94,28.51,15.29h143Z"/><polygon class="b762dc73-9783-4c7e-a11c-df3fbbf51fcd" points="100 15.29 100 184.71 41.46 167.94 28.51 15.29 100 15.29"/><polygon class="7b3fadfe-36f8-457f-9033-33aa479fff1d" points="171.49 15.29 158.54 167.94 100 184.71 100 15.29 171.49 15.29"/><path class="4e11135d-9e5b-4df6-acfa-68cdc4943fcf" d="M68.75,58.92l1.9,22.44H151l-1.87,22.07-1.88,22.1-2,23.59-22.7,6.45L99.8,162,77,155.61,54.5,149.32l-2-23.58-.94-11H73.48L75,132l24.85,7,24.71-7,2.43-28.55H50.6L48.73,81.36l-1.9-22.44L45,36.85H154.74l-1.88,22.07Z"/><polygon class="bf781c8f-aee3-4e94-812c-aa1fc085f305" points="100 58.91 68.75 58.91 70.65 81.34 100 81.34 100 103.42 50.6 103.42 48.73 81.34 46.83 58.91 44.95 36.83 100 36.83 100 58.91"/><path class="bf781c8f-aee3-4e94-812c-aa1fc085f305" d="M100,138.94v23l-.2.06L77,155.61,54.5,149.32l-2-23.58-.94-11H73.48L75,132l24.85,7Z"/></g></g></g></svg>