<svg xmlns="http://www.w3.org/2000/svg" viewBox="0 0 200 200.04"><defs><style>.\33 78db494-5b26-48bb-bb8e-c6a3ce4caebf{fill:#e7a42a;}.f66f47f1-ac96-438c-b28e-631c729f33b3{fill:#f1bf22;}.\37 8ead52c-a7da-4138-8e7d-febe4f9b2f3e{fill:none;stroke:#000;stroke-miterlimit:10;}.\35 e4d75e2-6f0b-452e-8b8b-6741726f0ed6{fill:#fff;}.\33 089b991-d2fd-458f-8005-e739007fcaed{fill:#eceeef;}</style></defs><title>Element 4</title><g id="7891414a-c660-4f9a-8d6f-4e21da9bc856" data-name="Ebene 2"><g id="c3d59cf7-612f-4be0-aeaa-242fb590568e" data-name="done"><rect class="378db494-5b26-48bb-bb8e-c6a3ce4caebf" width="200" height="200"/><g id="529ac927-f1be-49d1-b378-c36b44070b2c" data-name="JS"><path class="378db494-5b26-48bb-bb8e-c6a3ce4caebf" d="M11.78,0l16,180.2L100,200l72.24-19.8L188.22,0ZM158.54,168,100,184.74,41.46,168,28.51,15.33h143Z"/><polygon class="378db494-5b26-48bb-bb8e-c6a3ce4caebf" points="100 15.33 100 184.74 41.46 167.97 28.51 15.33 100 15.33"/><polygon class="f66f47f1-ac96-438c-b28e-631c729f33b3" points="171.49 15.33 158.54 167.97 100 184.74 100 15.33 171.49 15.33"/><line class="78ead52c-a7da-4138-8e7d-febe4f9b2f3e" x1="151.69" y1="81.49" x2="151.17" y2="81.49"/><polygon class="5e4d75e2-6f0b-452e-8b8b-6741726f0ed6" points="151.18 81.49 147.43 125.59 145.44 149.07 135.98 151.78 122.83 155.55 100 162.09 78.17 155.83 68.04 152.93 54.96 149.19 52.97 125.7 52.04 114.81 74.68 114.81 76.17 132.34 100 139.17 124.83 132.06 127.22 103.88 51.71 103.88 55.51 59.11 57.41 36.72 147.89 36.72 149.79 59.11 150.9 72.18 129.22 72.18 128.11 59.11 76 59.11 74.1 81.49 151.18 81.49"/><polygon class="3089b991-d2fd-458f-8005-e739007fcaed" points="76 59.11 74.1 81.49 100 81.49 100 103.88 51.71 103.88 55.51 59.11 57.41 36.72 100 36.72 100 59.11 76 59.11"/><polygon class="3089b991-d2fd-458f-8005-e739007fcaed" points="100 139.17 100 162.09 78.17 155.83 68.04 152.93 54.96 149.19 52.97 125.7 52.04 114.81 74.68 114.81 76.17 132.34 100 139.17"/><polygon class="3089b991-d2fd-458f-8005-e739007fcaed" points="76 59.11 74.1 81.49 100 81.49 100 103.88 51.71 103.88 55.51 59.11 57.41 36.72 100 36.72 100 59.11 76 59.11"/><polygon class="3089b991-d2fd-458f-8005-e739007fcaed" points="100 139.17 100 162.09 78.17 155.83 68.04 152.93 54.96 149.19 52.97 125.7 52.04 114.81 74.68 114.81 76.17 132.34 100 139.17"/></g></g></g></svg>