<svg xmlns="http://www.w3.org/2000/svg" viewBox="0 0 200 200"><defs><style>.e9c42d3d-cb1b-4164-a416-8ec4773a4ed8{fill:#214674;}.b9bb9e58-5c92-4da5-aca2-7c02034471b4{fill:#f6f6f6;}</style></defs><title>Element 2</title><g id="b1642c89-aa52-4959-8738-fbe90424ac15" data-name="Ebene 2"><g id="ffb11bb6-1a91-483d-872f-97dbddd41ce6" data-name="done"><rect class="e9c42d3d-cb1b-4164-a416-8ec4773a4ed8" width="200" height="200"/><g id="b58755a5-227d-4fb7-a6ea-7cf89dcadcaa" data-name="LESS"><path id="b08d3f23-b430-4327-b85f-d7f471485571" data-name="path21" class="b9bb9e58-5c92-4da5-aca2-7c02034471b4" d="M127.49,98.27c9.86,3.46,15,9.37,15,18a16,16,0,0,1-6.17,13.31c-4.19,3.21-9.86,5.18-17.5,5.18a42.91,42.91,0,0,1-20-5.18,2.58,2.58,0,0,1-1.23-2.22,21.71,21.71,0,0,1,1.48-4.93c.74-1.48,1.23-2.71,2-3.94a2.29,2.29,0,0,1,3-.74c5.42,2.46,9.86,3.94,14.05,3.94a9.77,9.77,0,0,0,4.93-1,3.14,3.14,0,0,0,1.73-2.71c0-2.22-1.73-4-5.18-4.93l-6.16-2.22c-9.37-3.45-14.06-8.88-14.06-16.77q0-8.51,5.92-13.31c3.94-3.2,9.12-6.16,15.78-6.16a45.3,45.3,0,0,1,10.84,1.48A27.7,27.7,0,0,1,140.55,80a2.59,2.59,0,0,1,1.24,2.22,15.51,15.51,0,0,1-1.24,5.42,13.44,13.44,0,0,1-2.46,4.19,2,2,0,0,1-2.47.5c-5.67-2.47-10.35-3.7-14.3-3.7a4.83,4.83,0,0,0-3.45,1,3.42,3.42,0,0,0-1.23,2.46c0,1.73,1.48,3.21,4.19,4.19Z"/><path id="ae80d145-288d-4d97-bcd4-e4b9eaf7deff" data-name="path27" class="b9bb9e58-5c92-4da5-aca2-7c02034471b4" d="M173.34,107.15c-3.2,2.71-4.93,6.66-4.93,12.08V138.7c0,6.41-2,11.34-6.41,14.8s-9.61,4.93-15.53,5.17H143v-8.13a1.88,1.88,0,0,1,1.48-2,9.37,9.37,0,0,0,4.19-2.71,13.05,13.05,0,0,0,3.94-9.86V120.21c0-5.42.5-9.61,2.47-12.57,1.48-2.22,3.94-4.19,7.39-6.16a2.31,2.31,0,0,0,0-4,20.36,20.36,0,0,1-8.63-9.12c-1.23-2.71-1.23-6.41-1.23-11.09V63c0-4.68-1.48-8.13-3.45-9.86a8.38,8.38,0,0,0-4.44-2.46,2.17,2.17,0,0,1-1.48-2.22V43.3a2.21,2.21,0,0,1,2.22-2.22h6.66c3.7,0,6.9,2,9.61,4.19a19,19,0,0,1,6.41,9.62,20.43,20.43,0,0,1,.74,6.65V78.06c0,5.92,1.73,10.35,4.69,13.07a18.28,18.28,0,0,0,6.65,3.94,2.06,2.06,0,0,1,1.48,2v4.19a2.36,2.36,0,0,1-1.48,2.22A15,15,0,0,0,173.34,107.15Z"/><path id="f656e55d-c2b9-4484-898d-e437d7242fa0" data-name="path29" class="b9bb9e58-5c92-4da5-aca2-7c02034471b4" d="M52.3,41.08H49.09c-3.69,0-6.9,2-9.61,4.19-3,2.47-5.67,5.43-6.41,9.62a30.78,30.78,0,0,0-.25,6.65V78.06a17.78,17.78,0,0,1-5.17,13.07c-1.48,1.47-4.44,2.71-7.89,3.94a2.36,2.36,0,0,0-1.48,2.22v4.19a2.37,2.37,0,0,0,1.48,2.22,22.76,22.76,0,0,1,7.39,3.7,15.16,15.16,0,0,1,5.43,12.08V139c0,6.41,1.48,11.34,5.91,14.79s9.62,4.93,15.53,5.18h1.73A2.21,2.21,0,0,0,58,156.7v-5.92a1.88,1.88,0,0,0-1.48-2,11.6,11.6,0,0,1-4.68-2.71c-2.22-2-3.46-5.42-3.46-9.86V120.46q0-8.13-3-12.57c-1.48-2.22-3.95-4.19-7.4-6.16a2.31,2.31,0,0,1,0-4,20.36,20.36,0,0,0,8.63-9.12c1.23-2.71,1.72-6.41,1.72-11.09V63.27c0-4.69,1-8.14,3-9.86,1-1,2.71-1.73,5.18-2.47h2.22a2.21,2.21,0,0,0,2.22-2.22V43.55a2.21,2.21,0,0,0-2.22-2.22Z"/><path id="bf001253-3e43-4995-9775-b6d1b7a4dffd" data-name="path31" class="b9bb9e58-5c92-4da5-aca2-7c02034471b4" d="M92.23,119.72h-3c-3.21,0-4.44-1.72-4.44-5.18V50.7a12.65,12.65,0,0,0-2.47-8.14c-1.48-1.48-3.94-1.48-7.39-1.48H69.55a2.21,2.21,0,0,0-2.21,2.22v74.45c0,5.42,1.23,9.12,3.45,11.83,2.22,2.47,5.67,3.7,10.84,3.7A79.2,79.2,0,0,0,92,132.54a2.7,2.7,0,0,0,2-2v-3A62.26,62.26,0,0,0,92.23,119.72Z"/></g></g></g></svg>