<svg xmlns="http://www.w3.org/2000/svg" viewBox="0 0 200 200"><defs><style>.\31 2896115-1e90-431c-a204-bccedefe37f7{fill:#006189;}.\35 eb8f8aa-e4b5-4df1-8c2f-30a8aaa6f16d,.bd06a884-7f06-4f1d-ad0b-1a1477f70d15{fill:#e48f00;}.bd06a884-7f06-4f1d-ad0b-1a1477f70d15{fill-rule:evenodd;}</style></defs><title>Element 6</title><g id="c70a11fe-cf92-4f91-8dea-4ea6519ec361" data-name="Ebene 2"><g id="aa37b148-eca8-4846-ad80-a8420695b6ab" data-name="done"><rect class="12896115-1e90-431c-a204-bccedefe37f7" width="200" height="200"/><g id="4cc7a588-31e2-4ed8-9deb-4c0f1c79f409" data-name="MySQL"><path class="5eb8f8aa-e4b5-4df1-8c2f-30a8aaa6f16d" d="M160.15,144.29c-7.82-.21-13.79.52-18.9,2.67-1.45.61-3.76.63-4,2.44.8.84.92,2.09,1.56,3.12a24.36,24.36,0,0,0,5.11,6c2,1.51,4.07,3.13,6.22,4.45,3.83,2.33,8.1,3.66,11.78,6,2.18,1.38,4.33,3.11,6.45,4.67,1,.76,1.75,2,3.11,2.44v-.22c-.71-.91-.9-2.16-1.55-3.11L167,169.86a47.24,47.24,0,0,0-10.23-9.78c-3-2.19-9.84-5.14-11.11-8.67l-.23-.23a48.75,48.75,0,0,0,6.67-1.55c3.35-.9,6.33-.67,9.78-1.56l4.67-1.33v-.89c-1.74-1.79-3-4.16-4.89-5.78a143,143,0,0,0-16-12c-3.11-2-6.94-3.23-10.23-4.89-1.11-.56-3.05-.85-3.78-1.78-1.73-2.2-2.67-5-4-7.55-2.79-5.38-5.53-11.25-8-16.9-1.69-3.86-2.79-7.66-4.89-11.12C104.7,69.23,93.84,59.21,77,49.37c-3.58-2.1-7.9-2.92-12.45-4l-7.34-.44c-1.49-.62-3-2.45-4.45-3.33-5.57-3.53-19.87-11.19-24-1.12C26.16,46.83,32.66,53,35,56.26c1.63,2.26,3.72,4.79,4.89,7.33.77,1.67.9,3.35,1.56,5.12,1.61,4.35,3,9.09,5.11,13.11a46.81,46.81,0,0,0,3.56,6c.82,1.11,2.22,1.6,2.44,3.33-1.37,1.92-1.45,4.9-2.22,7.34-3.47,11-2.17,24.57,2.89,32.68,1.55,2.48,5.2,7.82,10.23,5.78,4.39-1.79,3.41-7.34,4.66-12.23.29-1.11.11-1.93.67-2.67v.22l4,8c3,4.76,8.22,9.75,12.67,13.11,2.31,1.75,4.13,4.76,7.12,5.78V149h-.23c-.57-.9-1.48-1.28-2.22-2A51.78,51.78,0,0,1,85,141.18a135,135,0,0,1-10.89-17.79c-1.56-3-2.91-6.29-4.23-9.33-.5-1.18-.5-3-1.55-3.56-1.44,2.23-3.56,4-4.67,6.67-1.78,4.21-2,9.35-2.67,14.67-.39.14-.22,0-.44.22-3.1-.74-4.19-3.93-5.34-6.66-2.91-6.92-3.45-18.05-.89-26C55,97.33,58,90.84,56.78,88.94c-.58-1.9-2.49-3-3.56-4.45a35.3,35.3,0,0,1-3.56-6.22c-2.38-5.4-3.49-11.45-6-16.9a50.3,50.3,0,0,0-4.89-7.56c-1.84-2.56-3.91-4.45-5.34-7.56-.5-1.1-1.19-2.86-.44-4a1.77,1.77,0,0,1,1.33-1.33c1.29-1,4.88.33,6.23.89a54.34,54.34,0,0,1,9.56,4.89c1.45,1,2.91,2.82,4.67,3.33h2c3.13.72,6.63.23,9.55,1.11a58.07,58.07,0,0,1,14,6.67A86.76,86.76,0,0,1,110.8,91.16c1.15,2.21,1.65,4.32,2.66,6.67,2.05,4.73,4.63,9.6,6.67,14.23s4,9.27,6.89,13.11c1.52,2,7.35,3.11,10,4.23,1.86.78,4.9,1.6,6.67,2.66,3.36,2,6.62,4.45,9.78,6.67,1.58,1.12,6.43,3.55,6.67,5.56Z"/><path class="bd06a884-7f06-4f1d-ad0b-1a1477f70d15" d="M60.78,59.59a15.69,15.69,0,0,0-4,.45v.22H57c.78,1.6,2.15,2.63,3.11,4l2.22,4.67.23-.22c1.37-1,2-2.52,2-4.89-.56-.58-.64-1.31-1.11-2-.64-.93-1.87-1.45-2.67-2.23Z"/></g></g></g></svg>