<svg xmlns="http://www.w3.org/2000/svg" viewBox="0 0 200 200"><defs><style>.\32 7406fe0-034b-46dd-9632-d331910c866c{fill:#777bb3;}.aae6ec87-d476-4ffa-8e5c-57294920b949{fill:#fff;}</style></defs><title>Element 5</title><g id="0d64ac00-d985-4b3e-942e-307a059c4f17" data-name="Ebene 2"><g id="85164aa0-0b55-4517-ab13-c568a4272254" data-name="done"><rect class="27406fe0-034b-46dd-9632-d331910c866c" width="200" height="200"/><g id="77eb1069-b408-44e6-ab0b-aa62fa0c1a7c" data-name="PHP"><path id="ffe37a77-87a8-4cca-bd73-6b6cfa983f31" data-name="path3486" d="M42.14,112.23c5.36,0,9.37-1,11.9-2.94s4.24-5.28,5.15-9.94c.84-4.36.52-7.4-1-9s-4.79-2.53-9.73-2.53H39.92l-4.75,24.46Zm-28,30.12a1.34,1.34,0,0,1-1-.49,1.36,1.36,0,0,1-.28-1.1L25.39,76a1.33,1.33,0,0,1,1.31-1.08H53.84c8.53,0,14.88,2.32,18.87,6.89s5.25,11,3.69,19.08a29.55,29.55,0,0,1-9.28,16.6,26.33,26.33,0,0,1-9.88,5.92,44.76,44.76,0,0,1-13.58,1.75h-11l-3.14,16.15a1.34,1.34,0,0,1-1.31,1.08Z"/><path id="7ba47092-2654-4525-8b9e-0645c975f1ca" data-name="path3490" class="aae6ec87-d476-4ffa-8e5c-57294920b949" d="M41,89.11H48.5c6,0,8,1.31,8.74,2.09,1.17,1.29,1.39,4,.64,7.9-.85,4.33-2.41,7.4-4.65,9.13s-6,2.66-11.09,2.66H36.79ZM53.84,73.55H26.7a2.66,2.66,0,0,0-2.62,2.16L11.48,140.5a2.7,2.7,0,0,0,.56,2.21,2.67,2.67,0,0,0,2.06,1H28.22a2.67,2.67,0,0,0,2.62-2.16l2.93-15.07h9.89a46.14,46.14,0,0,0,14-1.81A27.73,27.73,0,0,0,68,118.42,30.74,30.74,0,0,0,77.7,101.1c1.66-8.49.31-15.29-4-20.21s-10.95-7.34-19.88-7.34m-20.29,40h8.59q8.53,0,12.72-3.22T60.5,99.6q1.39-7.21-1.28-10.19t-10.72-3H38.82l-5.27,27.12M53.84,76.21q12.25,0,17.87,6.43t3.38,18a28.16,28.16,0,0,1-8.87,15.88,25.05,25.05,0,0,1-9.39,5.63,43.06,43.06,0,0,1-13.17,1.69H31.57L28.22,141H14.1l12.6-64.8H53.84"/><path id="837ba0e3-02a4-4afc-b3c7-103813e5d4fd" data-name="path3494" d="M108.76,125.12a1.32,1.32,0,0,1-1-.49,1.35,1.35,0,0,1-.28-1.1L113,94.86c.53-2.73.4-4.68-.37-5.51-.46-.51-1.88-1.35-6-1.35H96.51l-7,36a1.33,1.33,0,0,1-1.31,1.08h-14a1.34,1.34,0,0,1-1.31-1.59l12.6-64.8a1.34,1.34,0,0,1,1.31-1.08h14a1.32,1.32,0,0,1,1,.49,1.3,1.3,0,0,1,.28,1.1l-3,15.64h10.86c8.27,0,13.88,1.46,17.15,4.46s4.37,8,3.09,14.55L124.3,124a1.34,1.34,0,0,1-1.31,1.08Z"/><path id="01baed50-6a1f-4e58-bf61-f90f6b9b8f20" data-name="path3498" class="aae6ec87-d476-4ffa-8e5c-57294920b949" d="M100.79,56.32h-14a2.66,2.66,0,0,0-2.62,2.16l-12.59,64.8a2.66,2.66,0,0,0,2.61,3.17h14a2.67,2.67,0,0,0,2.62-2.16l6.79-35h9c4.16,0,5,.89,5.07.93.25.27.58,1.53,0,4.35l-5.57,28.67a2.68,2.68,0,0,0,.56,2.2,2.65,2.65,0,0,0,2.06,1H123a2.67,2.67,0,0,0,2.62-2.16l5.86-30.15c1.37-7.08.19-12.39-3.5-15.78-3.52-3.24-9.43-4.81-18-4.81h-9.24l2.73-14a2.67,2.67,0,0,0-2.62-3.18m0,2.67L97.44,76.21h12.48q11.77,0,16.25,4.11t2.68,13.31L123,123.79H108.76l5.57-28.68c.64-3.26.4-5.48-.7-6.67s-3.44-1.78-7-1.78H95.41L88.2,123.79h-14L86.79,59h14"/><path id="fc0efdb2-7622-430e-80a5-e700177ec59d" data-name="path3502" d="M152.32,112.23c5.36,0,9.36-1,11.9-2.94s4.24-5.28,5.14-9.94c.85-4.36.53-7.4-1-9s-4.79-2.53-9.74-2.53H150.1l-4.75,24.46Zm-28,30.12a1.34,1.34,0,0,1-1.31-1.59L135.56,76a1.34,1.34,0,0,1,1.31-1.08H164c8.53,0,14.88,2.32,18.87,6.89s5.25,11,3.68,19.08a29.46,29.46,0,0,1-9.27,16.6,26.29,26.29,0,0,1-9.89,5.92,44.67,44.67,0,0,1-13.58,1.75h-11l-3.14,16.15a1.34,1.34,0,0,1-1.31,1.08Z"/><path id="247c470b-6e69-4157-8a72-044149923957" data-name="path3506" class="aae6ec87-d476-4ffa-8e5c-57294920b949" d="M151.2,89.11h7.47c6,0,8,1.31,8.75,2.09,1.16,1.29,1.38,4,.63,7.9-.84,4.33-2.4,7.4-4.65,9.13s-6,2.66-11.08,2.66H147ZM164,73.55H136.87a2.66,2.66,0,0,0-2.61,2.16l-12.6,64.79a2.67,2.67,0,0,0,2.62,3.18h14.11a2.66,2.66,0,0,0,2.62-2.16l2.93-15.07h9.89a46.17,46.17,0,0,0,14-1.81,27.62,27.62,0,0,0,10.38-6.22,30.83,30.83,0,0,0,9.67-17.32c1.65-8.49.31-15.29-4-20.21S173,73.55,164,73.55m-20.29,40h8.59q8.53,0,12.71-3.22t5.64-10.74q1.41-7.21-1.27-10.19t-10.73-3H149l-5.27,27.12M164,76.21q12.24,0,17.86,6.43t3.38,18a28.67,28.67,0,0,1-3.12,8.68,29.07,29.07,0,0,1-5.74,7.2,25,25,0,0,1-9.4,5.63,43,43,0,0,1-13.17,1.69H141.74L138.39,141H124.28l12.59-64.8H164"/></g></g></g></svg>